<svg width="575" height="122" viewBox="0 0 575 122" fill="none" xmlns="http://www.w3.org/2000/svg">
<path d="M86.1953 53.7742C82.9481 57.2695 81.3254 62.1308 81.7685 67.036L81.6923 66.9545C82.1478 72.7269 80.2015 78.4205 76.3728 82.5167C72.544 86.6129 67.2221 88.695 61.8266 88.2078L61.9028 88.2893C55.3701 87.6388 49.1575 91.4404 46.3696 97.7944C43.5817 104.148 44.8171 111.69 49.4585 116.651C54.0999 121.613 61.1506 122.927 67.0873 119.939C73.0239 116.951 76.5717 110.301 75.9577 103.312L76.0382 103.394C75.5827 97.6215 77.5289 91.9279 81.3577 87.8317C85.1864 83.7355 90.5083 81.6533 95.9038 82.1406L95.8234 82.0591C103.003 82.7499 109.684 78.0663 111.958 70.748C114.232 63.4297 111.502 55.3991 105.365 51.3536C99.2275 47.3081 91.2954 48.3104 86.208 53.7742H86.1953Z" fill="#5454D4"/>
<path d="M54.9747 77.6129L54.8943 77.5315C59.4822 78.026 64.0351 76.2904 67.2968 72.8034C70.5586 69.3165 72.1843 64.4468 71.7255 59.5382L71.8059 59.6197C71.3505 53.8473 73.2967 48.1537 77.1255 44.0575C80.9542 39.9613 86.2761 37.8792 91.6716 38.3664L91.5912 38.2849C98.1245 38.9413 104.341 35.1438 107.133 28.7907C109.925 22.4376 108.693 14.8935 104.053 9.92931C99.4132 4.96517 92.3616 3.64732 86.4233 6.6345C80.485 9.62167 76.9354 16.2722 77.549 23.2618L77.4728 23.1758C77.9298 28.9486 75.984 34.6432 72.1549 38.7398C68.3258 42.8363 63.003 44.918 57.6071 44.4291L57.6833 44.5151C53.0955 44.0205 48.5425 45.7562 45.2808 49.2431C42.019 52.7301 40.3933 57.5997 40.8521 62.5084L40.7759 62.4269C41.2298 68.1988 39.2831 73.8915 35.4547 77.9873C31.6263 82.0831 26.3054 84.1658 20.9102 83.6801L20.9864 83.7616C14.4532 83.1052 8.23679 86.9027 5.44464 93.2558C2.65249 99.609 3.8843 107.153 8.52435 112.117C13.1644 117.081 20.216 118.399 26.1543 115.412C32.0927 112.425 35.6422 105.774 35.0287 98.7847L35.1091 98.8662C34.6536 93.0938 36.5998 87.4002 40.4286 83.304C44.2573 79.2078 49.5792 77.1257 54.9747 77.6129V77.6129Z" fill="#FF7143"/>
<path d="M26.6109 68.5256C29.8587 65.031 31.4802 60.1687 31.0335 55.2639L31.1139 55.3454C30.6581 49.5713 32.6054 43.876 36.4362 39.7795C40.2669 35.6829 45.5912 33.602 50.9881 34.0921L50.9077 34.0106C57.4386 34.6652 63.652 30.8681 66.4425 24.5169C69.2329 18.1658 68.0012 10.6247 63.3629 5.66236C58.7245 0.700054 51.6757 -0.617717 45.7393 2.36764C39.8028 5.353 36.2536 12.0004 36.8654 18.9875L36.7892 18.906C37.2447 24.6784 35.2985 30.372 31.4697 34.4682C27.641 38.5644 22.3191 40.6466 16.9236 40.1593L16.9998 40.2408C9.82036 39.552 3.14105 44.2367 0.868323 51.5551C-1.4044 58.8734 1.32646 66.903 7.4637 70.9476C13.6009 74.9922 21.5325 73.9894 26.6194 68.5256H26.6109Z" fill="#5454D4"/>
<path d="M157.71 23.3662H170.279V88.8058H157.71V23.3662Z" fill="#19191B"/>
<path fill-rule="evenodd" clip-rule="evenodd" d="M191.044 44.3814C182.749 48.0885 177.362 56.7804 177.398 66.3978C177.354 72.7041 179.683 78.7642 183.859 83.2146C188.036 87.6649 193.71 90.1317 199.604 90.0598C208.593 90.0597 216.696 84.2612 220.128 75.3721C223.56 66.483 221.644 56.2572 215.274 49.4702C208.905 42.6833 199.339 40.6743 191.044 44.3814ZM199.425 56.3703C204.714 56.2658 209.094 60.7403 209.24 66.3975C209.383 69.202 208.423 71.9426 206.593 73.956C204.762 75.9693 202.228 77.0719 199.604 76.997C194.314 76.9973 190.012 72.4374 189.963 66.7782C189.914 61.1191 194.136 56.4748 199.425 56.3703Z" fill="#19191B"/>
<path fill-rule="evenodd" clip-rule="evenodd" d="M271.906 86.546V43.9852L259.671 43.9761V48.5492C256.686 44.642 252.147 42.4801 247.436 42.722C235.943 43.1097 226.815 53.1887 226.815 65.4897C226.815 77.7907 235.943 87.8698 247.436 88.2575C252.147 88.4994 256.686 86.3375 259.671 82.4303V86.5279C259.881 89.2314 258.932 91.8908 257.09 93.7559C255.249 95.6211 252.715 96.49 250.203 96.1177C246.23 96.5515 242.423 94.301 240.651 90.4716L229.927 97.1047C234.123 104.418 241.786 108.612 249.784 107.971C260.928 107.971 271.906 101.605 271.906 86.546ZM253.702 55.1379C257.483 56.9622 259.848 61.0629 259.675 65.4966C259.753 68.3595 258.696 71.1243 256.765 73.1081C254.834 75.0919 252.21 76.1099 249.539 75.9105C245.391 75.9158 241.657 73.2224 240.106 69.1067C238.555 64.9909 239.499 60.2799 242.491 57.2061C245.483 54.1324 249.921 53.3137 253.702 55.1379Z" fill="#19191B"/>
<path fill-rule="evenodd" clip-rule="evenodd" d="M292.671 44.3814C284.376 48.0885 278.988 56.7804 279.024 66.3978C278.981 72.7041 281.309 78.7642 285.486 83.2146C289.662 87.6649 295.336 90.1317 301.23 90.0598C310.22 90.0597 318.323 84.2612 321.754 75.3721C325.186 66.483 323.27 56.2572 316.901 49.4702C310.531 42.6833 300.966 40.6743 292.671 44.3814ZM301.052 56.3703C306.341 56.2658 310.721 60.7403 310.867 66.3975C311.01 69.202 310.05 71.9426 308.219 73.956C306.389 75.9693 303.855 77.0719 301.23 76.997C295.94 76.9973 291.638 72.4374 291.589 66.7782C291.54 61.1191 295.763 56.4748 301.052 56.3703Z" fill="#19191B"/>
<path fill-rule="evenodd" clip-rule="evenodd" d="M333.953 24.5192C331.135 25.768 329.298 28.7101 329.298 31.9735C329.339 36.4111 332.692 39.9978 336.839 40.0419C339.89 40.0419 342.64 38.0761 343.807 35.0611C344.974 32.0462 344.329 28.5758 342.172 26.2682C340.015 23.9607 336.772 23.2704 333.953 24.5192ZM343.141 43.9854H330.567L330.551 88.8101H343.141V43.9854Z" fill="#19191B"/>
<path fill-rule="evenodd" clip-rule="evenodd" d="M392 82.6838C395.759 78.2425 397.708 72.3809 397.414 66.3976C397.71 60.4132 395.762 54.5499 392.003 50.1072C388.244 45.6646 382.983 43.0097 377.388 42.7311C372.672 42.4559 368.089 44.4623 364.907 48.1961V43.9853H352.338V106.735H364.907V84.5901C368.088 88.3266 372.671 90.335 377.388 90.0596C382.982 89.7798 388.241 87.1252 392 82.6838ZM374.71 55.9987C380.184 55.9007 384.708 60.5425 384.845 66.3975C385.034 69.3072 384.054 72.1652 382.151 74.2534C380.248 76.3417 377.602 77.4616 374.878 77.332C369.404 77.3326 364.952 72.6111 364.906 66.7544C364.86 60.8978 369.236 56.0967 374.71 55.9987Z" fill="#19191B"/>
<path d="M436.202 75.3585C436.202 85.6682 427.826 90.0601 418.778 90.0601C411.298 90.785 404.16 86.5587 400.762 79.3927L411.651 72.7596C412.559 76.0956 415.522 78.2996 418.761 78.048C421.774 78.048 423.285 77.0609 423.285 75.2725C423.285 70.3372 402.67 72.9407 402.67 57.4331C402.67 47.6577 410.381 42.7315 419.095 42.7315C425.767 42.5057 432.026 46.1796 435.431 52.3213L424.707 58.5062C423.746 56.1059 421.536 54.5532 419.095 54.5625C416.916 54.5625 415.574 55.4681 415.574 57.0709C415.591 62.1827 436.202 58.7733 436.202 75.3585Z" fill="#19191B"/>
<path d="M482.116 43.9854V88.8101H469.547V84.5947C466.606 88.3679 462.151 90.4022 457.57 90.0643C449.106 90.0643 441.911 83.6122 441.911 71.5005V43.9854H454.48V69.5309C454.268 71.6917 454.954 73.8432 456.358 75.4132C457.762 76.9832 459.741 77.8126 461.768 77.6809C466.377 77.6809 469.559 74.8148 469.559 68.4488V43.9989L482.116 43.9854Z" fill="#19191B"/>
<path d="M554.189 61.286V88.8057H541.62V62.4497C541.62 57.9672 539.61 55.1011 535.589 55.1011C531.399 55.1011 529.051 58.2389 529.051 63.5273V88.8057H516.485V62.4497C516.485 57.9672 514.475 55.1011 510.45 55.1011C506.26 55.1011 503.916 58.2389 503.916 63.5273V88.8057H491.346V43.981H503.916V48.1012C506.563 44.3871 510.791 42.3633 515.144 42.7268C519.519 42.4978 523.685 44.7428 526.118 48.64C528.949 44.5659 533.537 42.3328 538.268 42.7268C547.888 42.7313 554.189 50.0798 554.189 61.286Z" fill="#19191B"/>
<path d="M564.821 43.7093C569.972 43.7093 574.148 39.2415 574.148 33.7301C574.148 28.2188 569.972 23.751 564.821 23.751C559.669 23.751 555.493 28.2188 555.493 33.7301C555.493 39.2415 559.669 43.7093 564.821 43.7093Z" fill="#19191B"/>
</svg>
